<svg xmlns="http://www.w3.org/2000/svg" viewBox="0 0 1024 1024">
<g>
<path d="M 272.00 952.31 C231.73,948.09 194.18,933.36 162.65,909.43 C152.44,901.69 133.00,883.30 133.00,881.38 C133.00,880.70 131.98,879.33 130.74,878.32 C128.21,876.28 120.26,865.58 114.52,856.50 C112.44,853.20 109.97,849.38 109.03,848.00 C107.11,845.18 97.00,824.59 97.00,823.51 C97.00,823.12 96.28,821.16 95.40,819.15 C89.27,805.18 83.88,783.21 82.00,764.50 C80.27,747.32 81.07,256.59 82.84,248.50 C83.56,245.20 84.87,238.90 85.75,234.50 C90.64,209.92 101.04,185.40 116.52,161.99 C140.91,125.10 176.20,97.26 217.87,82.03 C229.78,77.68 245.31,73.30 252.04,72.40 C254.49,72.07 259.20,71.08 262.50,70.19 C267.94,68.72 290.80,68.55 506.50,68.39 C639.89,68.29 748.24,68.60 753.00,69.10 C761.07,69.95 766.42,70.95 782.50,74.65 C790.69,76.53 806.73,81.54 809.24,82.99 C810.19,83.55 811.44,84.00 812.02,84.00 C814.27,84.00 836.06,95.21 845.67,101.32 C893.32,131.61 926.41,178.75 938.45,233.50 C938.82,235.21 939.16,236.70 939.47,238.20 C942.45,252.62 942.43,267.66 942.20,487.05 L 942.18 507.50 C942.04,646.65 941.73,761.17 941.50,762.00 C941.27,762.83 940.83,767.33 940.52,772.00 C939.47,788.23 932.22,813.03 922.59,833.34 C915.39,848.53 905.15,864.54 893.54,878.78 C884.14,890.30 865.43,907.24 852.43,916.00 C834.93,927.79 832.90,928.88 809.50,939.01 C799.00,943.55 770.91,950.31 755.50,952.00 C747.13,952.92 280.64,953.22 272.00,952.31 ZM 567.00 545.66 C572.40,547.27 577.19,547.91 584.09,547.95 C601.83,548.05 616.69,542.33 630.12,530.25 C636.61,524.41 637.38,524.00 641.87,524.00 C648.74,524.00 661.30,520.55 669.38,516.44 C688.22,506.87 703.24,488.12 706.97,469.50 C707.63,466.20 708.35,462.60 708.56,461.50 C708.82,460.20 711.60,458.12 716.55,455.53 C744.31,441.02 760.49,407.46 756.09,373.50 C753.21,351.25 741.93,330.69 725.96,318.60 L 719.50 313.71 L 719.46 303.10 C719.41,290.85 717.45,282.06 712.40,271.50 C703.03,251.86 685.47,237.11 665.38,231.97 C661.14,230.88 657.59,229.88 657.51,229.75 C657.42,229.61 656.56,227.36 655.60,224.75 C653.48,219.04 645.86,207.27 640.09,200.78 C629.92,189.37 609.40,177.11 593.50,172.97 C581.86,169.93 560.45,169.15 552.49,171.46 C536.12,176.22 526.50,185.17 521.96,199.86 C520.05,206.05 520.00,209.91 520.00,350.50 C520.00,494.57 520.00,494.80 522.11,501.64 C525.76,513.46 529.65,519.89 538.38,528.54 C547.42,537.48 555.20,542.14 567.00,545.66 ZM 425.50 546.09 C434.84,548.66 452.69,548.19 461.28,545.14 C482.19,537.71 496.84,522.72 502.93,502.50 L 505.03 495.50 L 504.50 200.50 L 501.80 194.75 C496.30,183.00 484.30,173.66 471.22,170.94 C463.13,169.26 443.49,170.28 433.59,172.90 C416.37,177.47 402.60,184.87 390.79,195.92 C381.41,204.69 374.84,213.56 371.04,222.58 C369.52,226.18 367.88,229.47 367.39,229.90 C366.90,230.33 363.89,231.24 360.70,231.92 C348.06,234.63 332.02,245.00 322.83,256.41 C311.87,270.01 306.67,284.84 306.59,302.67 L 306.54 313.84 L 303.66 315.54 C298.41,318.64 287.05,330.16 282.53,336.95 C273.25,350.91 268.81,366.29 268.81,384.50 C268.80,415.56 284.14,442.19 309.51,455.18 L 317.80 459.43 L 319.48 467.20 C320.41,471.48 323.18,479.13 325.65,484.20 C329.43,491.97 331.58,494.86 339.32,502.58 C347.14,510.38 349.92,512.43 358.08,516.39 C367.75,521.07 378.13,523.95 385.51,523.98 C388.95,524.00 390.30,524.73 395.01,529.14 C404.58,538.11 412.52,542.52 425.50,546.09 ZM 599.25 526.01 C578.00,532.57 554.73,523.14 544.39,503.79 L 540.50 496.50 L 540.20 353.50 C539.99,252.13 540.22,209.40 541.00,206.73 C542.51,201.51 547.55,196.12 553.49,193.35 C557.79,191.35 559.92,191.04 568.50,191.17 L 578.50 191.32 L 567.47 191.94 C558.22,192.46 555.81,192.95 552.47,194.99 C547.20,198.22 546.59,198.89 544.11,204.00 C541.39,209.63 541.45,209.83 544.75,206.49 C550.04,201.14 556.41,199.02 567.19,199.01 C599.14,198.98 628.57,219.08 636.50,246.35 C638.51,253.27 640.50,254.99 647.33,255.69 C652.36,256.21 652.83,256.10 652.51,254.38 C652.31,253.35 652.12,252.20 652.08,251.82 C652.03,251.45 651.21,250.94 650.25,250.69 C649.29,250.44 650.33,250.18 652.57,250.12 C663.63,249.80 679.72,258.59 688.48,269.74 C695.41,278.55 699.18,288.54 699.77,299.63 C700.06,305.04 699.77,310.78 699.06,313.74 C697.30,321.08 699.10,324.74 706.55,328.94 C718.68,335.79 727.94,347.04 733.20,361.30 C736.81,371.10 738.01,386.30 736.08,397.57 C733.02,415.37 720.32,431.97 703.68,439.92 C698.99,442.15 694.21,445.18 693.06,446.65 C690.84,449.48 690.78,449.68 689.19,460.27 C685.73,483.35 665.17,501.63 639.50,504.46 C628.99,505.62 627.88,506.09 620.41,512.62 C610.29,521.44 606.72,523.70 599.25,526.01 ZM 454.29 525.99 C447.40,528.12 437.47,528.50 430.62,526.89 C423.29,525.17 414.49,520.08 406.77,513.09 C400.89,507.77 398.14,505.97 395.27,505.56 C382.45,503.71 373.67,501.47 367.28,498.41 C359.06,494.47 349.69,486.32 345.00,479.00 C340.79,472.44 337.05,461.60 337.02,455.90 C336.99,448.92 334.00,445.26 324.43,440.50 C309.14,432.89 300.08,424.24 293.96,411.42 C279.85,381.84 292.19,342.59 320.05,328.48 C326.10,325.41 328.58,320.74 327.05,315.25 C326.48,313.19 326.01,307.61 326.01,302.86 C326.00,287.68 331.78,274.40 342.98,263.90 C351.79,255.64 360.61,251.69 375.15,249.50 C380.43,248.70 383.61,245.72 385.55,239.74 C392.85,217.23 410.09,201.45 435.62,193.90 C444.50,191.27 462.22,190.24 468.47,191.99 C473.96,193.53 481.68,200.05 483.82,204.96 C485.17,208.05 485.40,219.63 485.62,295.75 C485.71,328.91 485.65,357.91 485.47,372.66 C485.33,372.24 485.17,372.00 485.00,372.00 C484.45,372.00 484.00,373.10 484.00,374.45 C484.00,375.80 483.22,377.34 482.27,377.87 C481.15,378.50 480.80,378.78 481.29,379.55 C478.24,376.65 473.70,372.20 468.74,367.24 L 453.00 351.48 L 453.00 286.37 L 457.10 284.07 C462.02,281.30 466.67,274.36 467.56,268.47 C468.59,261.59 465.88,254.06 460.62,249.21 C454.06,243.17 447.21,241.69 438.93,244.51 C423.11,249.91 418.88,270.78 431.38,281.76 C433.41,283.54 435.73,285.00 436.53,285.00 C437.79,285.00 438.00,289.93 438.00,320.05 C438.00,348.56 438.27,355.60 439.43,357.80 C440.22,359.28 450.98,370.58 463.34,382.89 L 485.81 405.29 L 485.36 494.63 L 482.24 501.30 C480.52,504.97 477.65,509.80 475.84,512.05 C471.39,517.59 462.16,523.56 454.29,525.99 ZM 236.42 829.69 C239.06,831.51 241.57,833.00 242.01,833.00 C242.44,833.00 242.81,827.63 242.83,821.07 C242.86,809.79 244.75,798.54 247.14,795.41 C247.60,794.81 248.67,787.84 249.52,779.91 C250.37,771.99 251.80,761.67 252.70,757.00 C253.59,752.33 254.53,746.80 254.77,744.73 C255.05,742.38 255.93,740.57 257.11,739.94 C260.27,738.25 259.25,736.48 254.37,735.18 C246.77,733.14 250.28,732.60 259.22,734.42 C266.89,735.99 285.71,736.09 516.00,735.81 L 764.50 735.50 L 771.50 733.14 C786.59,728.04 794.14,722.50 798.71,713.17 C801.94,706.56 802.25,698.88 799.56,692.65 C798.64,690.53 790.65,676.80 781.80,662.15 C772.94,647.49 762.77,630.64 759.20,624.71 C749.32,608.33 740.45,601.29 724.24,596.95 C718.08,595.30 711.77,595.14 651.12,595.06 C602.93,595.00 584.36,595.28 583.37,596.11 C581.58,597.59 581.36,628.49 583.13,629.58 C583.92,630.07 584.13,629.32 583.81,627.14 L 583.35 624.00 L 636.36 624.00 C696.56,624.00 697.41,624.09 705.51,631.22 C707.98,633.39 710.00,635.55 710.00,636.02 C710.00,636.48 713.09,642.63 716.88,649.68 C731.39,676.74 736.00,686.40 736.00,689.75 C736.00,695.05 733.40,698.94 728.37,701.16 C723.94,703.12 721.27,703.14 512.70,703.04 C357.82,702.96 300.50,702.63 297.71,701.79 C295.62,701.17 292.53,699.08 290.84,697.17 C286.02,691.68 286.78,689.17 302.26,659.49 C313.66,637.63 316.47,632.99 319.93,630.29 C327.27,624.57 326.86,624.61 386.47,624.25 C428.06,624.00 441.62,623.62 442.20,622.71 C443.52,620.63 443.14,598.58 441.75,596.69 C440.60,595.13 435.43,595.00 375.50,595.01 C339.75,595.02 308.92,595.27 307.00,595.57 C296.74,597.14 286.32,601.46 277.78,607.69 C274.19,610.30 271.27,614.07 265.67,623.32 C261.62,630.02 250.93,647.65 241.93,662.50 C232.93,677.35 224.78,691.75 223.82,694.50 C222.23,699.02 222.06,704.68 222.03,753.31 C222.01,787.97 222.38,808.61 223.06,811.31 C224.56,817.24 230.78,825.81 236.42,829.69 ZM 512.58 559.00 C536.86,559.00 550.00,558.65 550.00,558.00 C550.00,557.35 537.69,557.00 515.08,557.00 C490.11,557.00 480.06,556.68 479.79,555.88 C479.29,554.38 474.39,554.43 472.56,555.95 C470.85,557.37 471.65,560.12 473.50,559.63 L 473.44 573.00 C473.41,580.42 473.29,599.89 473.19,616.25 L 473.00 646.00 L 455.83 646.00 C436.96,646.00 435.00,646.56 435.00,651.98 C435.00,654.10 437.52,657.01 447.25,666.15 C453.99,672.47 461.88,679.75 464.78,682.33 L 470.07 687.00 L 510.96 687.00 C545.98,687.00 552.07,686.78 553.36,685.50 C555.18,683.68 556.39,683.53 555.40,685.25 C554.46,686.91 557.70,684.02 575.25,667.57 C590.42,653.36 591.66,651.49 588.35,647.83 C586.86,646.19 584.89,646.00 569.57,646.00 L 552.46 646.00 L 552.23 603.30 C552.10,579.82 551.63,560.23 551.19,559.79 C550.74,559.34 533.08,559.09 511.94,559.24 L 474.10 559.50 C476.90,559.22 493.40,559.00 512.58,559.00 ZM 417.50 481.11 C425.68,484.89 437.09,482.95 442.63,476.85 C451.48,467.12 450.31,452.41 440.02,443.86 L 435.96 440.49 L 437.38 431.99 C438.15,427.32 439.05,421.41 439.36,418.86 L 439.93 414.22 L 424.34 398.58 C415.76,389.97 407.93,382.50 406.94,381.97 C405.94,381.43 401.95,381.00 398.07,381.00 L 391.00 381.00 L 391.00 331.19 L 395.39 328.62 C397.82,327.19 401.21,323.91 402.97,321.27 C405.97,316.78 406.13,316.05 405.82,308.83 C405.54,302.20 405.08,300.58 402.45,296.83 C393.38,283.92 374.41,284.44 366.36,297.82 C364.63,300.69 362.93,304.96 362.58,307.31 C361.43,314.98 366.46,324.78 373.50,328.57 L 377.00 330.45 L 377.00 381.00 L 371.67 381.00 C366.63,381.00 366.20,380.80 363.92,377.33 C359.77,371.04 354.75,367.73 348.56,367.21 C340.64,366.56 336.86,367.57 332.13,371.62 C326.46,376.48 323.70,382.13 323.65,389.00 C323.48,410.79 352.54,419.08 363.83,400.46 L 366.50 396.06 L 383.52 396.03 L 400.53 396.00 L 412.27 407.77 C419.35,414.87 424.00,420.32 424.00,421.52 C424.00,422.61 423.29,427.10 422.41,431.50 L 420.82 439.50 L 415.82 442.50 C406.39,448.15 402.58,459.74 406.93,469.57 C409.66,475.75 412.43,478.77 417.50,481.11 ZM 575.00 491.71 C578.54,493.49 580.70,493.30 583.00,491.00 C584.80,489.20 585.00,487.67 585.00,475.65 L 585.00 462.30 L 590.92 457.15 L 596.84 452.00 L 616.02 452.00 C632.02,452.00 635.63,451.73 637.85,450.36 C639.31,449.46 643.81,444.72 647.86,439.83 C655.62,430.44 658.00,425.18 658.00,417.42 C658.00,413.97 658.50,412.80 660.66,411.23 L 663.33 409.29 L 668.33 412.39 C672.49,414.98 674.34,415.50 679.41,415.50 C689.96,415.49 698.18,408.88 701.00,398.13 C704.56,384.53 691.70,369.69 677.78,371.34 C667.42,372.57 659.15,380.42 658.24,389.89 C657.80,394.39 657.40,394.99 652.43,398.60 C649.49,400.72 646.63,403.37 646.07,404.48 C645.51,405.59 644.38,410.47 643.56,415.33 C642.11,423.93 641.92,424.33 636.29,430.51 L 630.50 436.86 L 603.00 437.00 L 603.00 399.22 L 605.36 398.63 C608.98,397.72 615.71,389.77 617.04,384.85 C619.09,377.25 616.40,367.49 610.83,362.30 C605.00,356.86 593.28,355.29 586.06,358.97 C576.75,363.72 572.15,374.79 575.08,385.35 C576.21,389.41 583.33,398.00 585.57,398.00 C586.29,398.00 587.13,398.41 587.44,398.91 C587.75,399.41 588.26,408.48 588.56,419.07 L 589.12 438.32 L 580.53 446.41 L 571.93 454.50 L 572.22 472.47 L 572.50 490.44 ZM 434.90 805.13 C439.08,805.48 477.38,805.68 520.00,805.58 C592.88,805.40 597.72,805.28 601.14,803.56 C605.44,801.40 609.00,795.63 609.00,790.81 C609.00,786.03 605.53,782.74 604.82,786.85 C604.58,788.27 604.11,787.90 602.84,785.28 C601.21,781.92 601.22,781.89 603.09,783.58 C605.81,786.04 605.40,784.02 602.52,780.75 C600.42,778.37 596.06,776.68 597.35,778.75 C597.61,779.16 593.92,779.29 589.16,779.03 L 580.50 778.55 L 588.50 778.02 C597.29,777.44 596.95,777.31 581.00,775.25 C570.20,773.86 474.57,774.53 458.00,776.11 L 443.50 777.50 L 457.00 778.04 C470.32,778.58 470.24,778.59 450.71,778.79 C433.43,778.97 430.44,779.24 427.16,780.92 C423.44,782.82 421.00,786.38 421.00,789.91 C421.00,790.90 422.11,793.36 423.47,795.36 C424.83,797.36 425.50,799.00 424.97,799.00 C423.42,799.00 423.85,801.63 425.65,803.13 C426.56,803.88 430.72,804.78 434.90,805.13 ZM 608.22 333.44 C610.07,334.74 614.18,335.00 632.72,335.00 C653.57,335.00 655.13,334.87 656.97,333.03 C658.06,331.94 659.23,329.93 659.57,328.57 C660.62,324.38 659.57,290.69 658.33,288.49 C656.62,285.48 621.45,258.60 618.27,257.87 C616.74,257.52 612.74,257.18 609.38,257.12 C603.54,257.01 603.22,256.87 602.68,254.25 C601.87,250.36 596.52,244.31 591.74,241.87 C585.58,238.73 575.59,239.50 569.80,243.57 C562.04,249.03 558.54,258.72 561.07,267.74 C562.56,273.06 567.61,279.18 572.01,281.00 L 575.00 282.24 L 575.00 295.62 C575.00,307.67 575.20,309.20 577.00,311.00 C578.11,312.11 580.33,313.00 582.00,313.00 C583.67,313.00 585.89,312.11 587.00,311.00 C588.79,309.21 589.00,307.67 589.00,296.02 L 589.00 283.04 L 592.96 281.02 C595.13,279.91 598.17,277.43 599.71,275.50 C602.65,271.81 605.59,271.17 612.91,272.63 C616.68,273.39 642.93,293.55 644.74,297.08 C646.25,300.04 646.43,318.17 644.97,319.63 C644.32,320.28 640.00,320.49 633.56,320.21 C619.69,319.59 610.36,320.64 607.91,323.09 C605.20,325.80 605.37,331.44 608.22,333.44 ZM 386.62 246.04 C387.37,250.71 388.51,250.43 389.47,245.32 C389.85,243.28 391.32,239.34 392.72,236.56 C403.90,214.47 430.38,199.00 457.01,199.00 C468.38,199.00 474.15,200.66 479.35,205.43 C483.39,209.12 483.69,208.89 481.54,203.74 C479.71,199.37 475.44,195.72 469.53,193.46 C463.60,191.20 445.78,191.97 435.50,194.93 C418.89,199.73 401.95,211.60 393.95,224.07 C389.06,231.70 385.86,241.28 386.62,246.04 ZM 505.00 694.01 C506.06,692.29 515.34,691.78 522.68,693.03 C528.20,693.98 530.37,694.02 530.88,693.19 C531.39,692.37 532.26,692.42 534.09,693.37 C535.48,694.09 539.12,694.97 542.20,695.34 C546.88,695.89 547.89,695.72 548.43,694.33 C549.10,692.57 547.53,691.05 545.00,691.00 C544.17,690.98 541.69,690.34 539.48,689.57 C533.36,687.44 524.81,687.32 521.95,689.33 C519.28,691.19 512.48,691.59 511.46,689.93 C511.09,689.34 510.17,689.11 509.40,689.40 C508.63,689.70 508.00,689.61 508.00,689.22 C508.00,688.82 503.99,688.38 499.09,688.23 C490.58,687.97 490.20,688.05 490.71,689.98 C491.00,691.10 492.07,692.00 493.11,692.00 C494.14,692.00 495.55,692.92 496.24,694.05 C497.27,695.74 498.13,695.99 501.00,695.46 C502.92,695.11 504.72,694.45 505.00,694.01 ZM 685.08 399.08 C683.47,400.68 681.33,401.97 680.33,401.94 C675.44,401.77 671.00,397.67 671.00,393.33 C671.00,390.17 674.94,386.10 678.71,385.38 C681.39,384.87 682.42,385.26 684.96,387.81 C688.87,391.72 688.91,395.24 685.08,399.08 ZM 351.19 393.96 C348.03,397.12 344.93,397.72 341.50,395.85 C333.67,391.56 336.72,381.00 345.80,381.00 C350.29,381.00 352.66,383.06 353.61,387.78 C354.13,390.40 353.73,391.43 351.19,393.96 ZM 390.08 315.08 C388.47,316.68 386.33,317.99 385.33,317.99 C382.26,317.96 378.57,315.59 377.22,312.77 C374.81,307.74 377.77,302.60 383.78,301.39 C386.40,300.87 387.43,301.27 389.96,303.81 C393.87,307.72 393.91,311.24 390.08,315.08 ZM 432.66 466.85 C429.65,469.68 427.19,470.12 423.37,468.51 C416.08,465.45 417.95,454.67 426.00,453.38 C433.72,452.15 438.34,461.51 432.66,466.85 ZM 587.37 267.93 C579.25,274.31 569.19,263.72 576.45,256.45 C579.66,253.25 585.10,253.12 587.96,256.19 C591.02,259.47 590.72,265.29 587.37,267.93 ZM 451.93 270.37 C447.54,275.94 438.00,272.47 438.00,265.30 C438.00,258.26 446.55,254.46 451.43,259.34 C454.58,262.49 454.78,266.74 451.93,270.37 ZM 600.92 384.41 C597.59,387.21 595.62,387.55 592.50,385.85 C585.33,381.93 586.98,372.57 595.17,370.63 C597.19,370.16 598.61,370.64 600.92,372.59 C605.18,376.17 605.18,380.83 600.92,384.41 ZM 613.59 844.85 C614.12,844.00 620.85,843.90 639.40,844.45 C690.23,845.99 694.14,846.03 693.53,845.04 C693.16,844.45 696.56,843.95 702.21,843.75 C707.32,843.56 683.17,843.32 648.55,843.21 C609.58,843.08 585.96,843.36 586.55,843.93 C588.54,845.88 612.45,846.70 613.59,844.85 ZM 680.00 272.10 C687.67,279.92 688.59,280.76 687.49,278.98 C687.14,278.42 686.64,276.77 686.38,275.30 C686.11,273.84 685.59,272.16 685.23,271.57 C684.86,270.98 684.46,269.89 684.35,269.14 C684.02,266.96 679.91,263.10 678.49,263.64 C677.20,264.14 675.54,262.39 675.52,260.50 C675.51,259.95 673.56,258.52 671.19,257.32 C667.67,255.55 666.33,255.34 663.94,256.17 C662.32,256.73 661.00,257.59 661.00,258.07 C661.00,258.55 663.59,260.18 666.75,261.70 C670.52,263.50 675.08,267.09 680.00,272.10 ZM 564.78 702.45 C564.47,702.14 551.12,701.86 535.09,701.82 C519.07,701.78 505.72,701.35 505.42,700.87 C504.68,699.67 495.00,699.77 495.00,700.98 C495.00,701.58 486.93,702.07 474.25,702.25 C462.84,702.41 478.66,702.65 509.42,702.77 C540.17,702.90 565.08,702.75 564.78,702.45 ZM 608.07 654.00 C609.54,654.00 609.15,649.27 607.63,648.69 C606.88,648.40 604.74,649.10 602.88,650.24 C600.68,651.58 599.98,652.47 600.88,652.78 C601.63,653.04 603.20,654.20 604.36,655.36 C606.27,657.27 606.51,657.31 606.81,655.74 C607.00,654.78 607.56,654.00 608.07,654.00 ZM 438.59 659.25 C437.02,657.74 436.01,657.02 436.36,657.65 C436.71,658.28 436.32,659.05 435.49,659.36 C434.05,659.92 433.33,665.99 434.56,667.22 C434.86,667.53 436.54,666.48 438.28,664.89 L 441.45 662.00 ZM 352.56 845.04 C353.08,844.52 357.56,843.93 362.51,843.75 C367.45,843.56 362.73,843.38 352.00,843.33 C341.27,843.29 334.40,843.56 336.73,843.94 C339.06,844.32 341.27,844.94 341.65,845.31 C342.69,846.35 351.47,846.13 352.56,845.04 ZM 315.00 433.88 C319.95,437.58 322.00,438.68 322.00,437.64 C322.00,437.44 319.54,435.65 316.52,433.65 C313.51,431.65 309.37,427.76 307.31,425.01 C305.25,422.25 303.25,420.00 302.85,420.00 C299.29,420.00 304.71,426.20 315.00,433.88 ZM 456.82 679.28 C456.23,678.58 455.26,678.00 454.67,678.00 C454.07,678.00 452.62,676.80 451.45,675.34 C449.19,672.50 447.00,672.82 447.00,675.98 C447.00,677.22 447.97,678.05 449.90,678.48 C451.49,678.83 453.59,680.00 454.57,681.08 C455.90,682.55 456.55,682.73 457.12,681.81 C457.54,681.13 457.41,679.99 456.82,679.28 ZM 589.00 665.56 C589.00,664.22 589.45,662.84 590.00,662.50 C591.42,661.62 591.24,660.31 589.61,659.68 C588.85,659.39 587.03,660.41 585.55,661.94 C583.08,664.53 583.00,664.86 584.51,666.37 C586.92,668.77 589.00,668.40 589.00,665.56 ZM 582.71 843.62 C583.05,843.28 576.62,843.04 568.42,843.10 C560.21,843.15 554.62,843.52 556.00,843.92 C558.96,844.77 581.82,844.52 582.71,843.62 ZM 446.00 626.07 C446.00,624.93 445.56,624.00 445.03,624.00 C444.47,624.00 443.93,618.44 443.75,610.75 C443.44,597.54 443.44,597.56 443.22,614.32 C443.02,629.27 443.17,630.98 444.50,629.64 C445.33,628.82 446.00,627.21 446.00,626.07 ZM 509.00 493.96 C509.00,492.33 508.55,491.00 508.00,491.00 C507.45,491.00 506.95,489.76 506.89,488.25 C506.79,486.05 506.60,486.30 505.94,489.50 C505.49,491.70 505.09,494.75 505.06,496.29 C505.01,498.77 505.22,498.95 507.00,498.00 C508.31,497.30 509.00,495.91 509.00,493.96 ZM 434.40 640.41 C435.15,638.45 434.34,637.00 432.50,637.00 C430.70,637.00 429.68,638.71 430.38,640.55 C431.12,642.49 433.63,642.40 434.40,640.41 ZM 418.98 656.08 C418.98,655.21 418.53,653.83 418.00,653.00 C417.19,651.75 417.02,651.84 416.95,653.50 L 416.86 655.50 L 416.00 653.50 C415.01,651.21 414.76,652.50 415.59,655.58 C416.24,658.01 419.01,658.42 418.98,656.08 ZM 464.55 687.91 C465.52,686.34 463.63,684.82 461.64,685.58 C460.33,686.09 460.21,686.54 461.10,687.62 C462.48,689.28 463.65,689.38 464.55,687.91 ZM 479.98 689.25 C479.97,687.75 479.83,687.72 479.00,689.00 C478.35,690.00 478.03,690.08 478.02,689.25 C478.01,688.56 477.33,688.00 476.50,688.00 C475.67,688.00 475.00,688.67 475.00,689.50 C475.00,690.43 475.94,691.00 477.50,691.00 C479.22,691.00 480.00,690.45 479.98,689.25 ZM 550.00 844.00 C551.10,843.29 550.34,843.03 547.19,843.02 C544.57,843.01 543.12,843.39 543.50,844.00 C544.28,845.27 548.04,845.27 550.00,844.00 ZM 519.83 493.03 C519.62,492.41 518.97,492.41 518.00,493.03 C516.67,493.89 516.67,494.11 518.00,494.97 C519.54,495.96 520.49,494.95 519.83,493.03 ZM 572.39 676.42 C573.33,673.97 573.13,673.65 571.50,675.00 C569.84,676.38 569.51,678.00 570.89,678.00 C571.38,678.00 572.06,677.29 572.39,676.42 ZM 586.00 660.00 C586.59,658.90 586.90,658.00 586.69,658.00 C586.48,658.00 585.50,658.90 584.50,660.00 C583.50,661.10 583.19,662.00 583.81,662.00 C584.43,662.00 585.41,661.10 586.00,660.00 ZM 562.00 686.11 C562.00,685.62 561.35,684.96 560.55,684.66 C559.58,684.29 559.29,684.58 559.66,685.55 C560.26,687.13 562.00,687.54 562.00,686.11 ZM 484.89 382.82 C485.01,382.82 485.13,382.78 485.23,382.71 C485.21,382.90 485.19,383.00 485.17,383.00 C485.14,383.00 485.04,382.94 484.89,382.82 Z" fill="rgb(12,25,46)"/>
<path d="M 552.50 651.27 C555.51,651.85 588.10,651.23 588.75,650.58 C589.07,650.27 588.50,649.11 587.51,648.01 C585.85,646.18 584.48,646.01 569.57,646.00 C584.89,646.00 586.86,646.19 588.35,647.83 C591.66,651.49 590.42,653.36 575.25,667.57 C557.70,684.02 554.46,686.91 555.40,685.25 C556.39,683.53 555.18,683.68 553.36,685.50 C552.07,686.78 545.98,687.00 510.96,687.00 L 470.07 687.00 L 464.78 682.33 C461.88,679.75 453.99,672.47 447.25,666.15 C437.52,657.01 435.00,654.10 435.00,651.98 C435.00,651.44 435.02,650.95 435.07,650.50 C436.92,651.73 473.80,651.90 475.82,650.63 C476.87,649.97 476.79,649.42 475.41,647.90 C473.84,646.17 472.12,646.00 456.17,646.00 L 473.00 646.00 L 473.19 616.25 C473.29,599.89 473.41,580.42 473.44,573.00 L 473.50 559.63 L 473.50 559.63 L 473.65 575.50 C473.73,584.30 473.93,597.35 474.09,604.50 L 474.40 617.50 L 475.00 606.50 C475.33,600.45 475.73,596.85 475.89,598.50 C476.44,604.21 478.96,592.13 478.98,583.70 C479.01,573.88 480.73,570.00 485.07,570.00 C487.59,570.00 487.87,569.77 486.79,568.60 C486.08,567.84 485.27,567.34 485.00,567.51 C484.73,567.67 483.15,567.21 481.50,566.48 C478.93,565.35 483.49,565.15 512.94,565.08 L 547.38 565.00 L 542.77 569.29 L 545.39 570.88 C547.19,571.97 548.05,573.39 548.15,575.48 L 548.30 578.50 L 548.90 575.50 C549.23,573.85 549.74,581.50 550.03,592.50 L 550.56 612.50 L 550.78 585.74 L 550.99 559.72 C551.10,559.74 551.17,559.77 551.19,559.79 C551.63,560.23 552.10,579.82 552.23,603.30 L 552.46 646.00 L 568.80 646.00 C553.38,646.00 551.73,646.17 549.80,647.97 C547.59,650.03 547.87,650.37 552.50,651.27 ZM 767.50 725.85 C763.23,727.17 752.31,727.44 693.00,727.70 C625.21,728.00 623.56,727.97 625.87,726.16 C627.77,724.67 630.01,724.31 637.17,724.30 C642.56,724.30 646.56,723.84 647.25,723.15 C647.88,722.52 649.61,722.00 651.08,722.00 C653.12,722.00 654.06,721.28 655.01,718.98 C655.70,717.31 656.99,715.53 657.88,715.01 C659.22,714.23 659.24,714.06 658.01,714.03 C657.20,714.01 658.10,713.16 660.01,712.13 C663.17,710.44 666.34,710.25 693.76,710.08 C727.51,709.87 731.44,709.29 738.53,703.51 C740.74,701.71 742.63,699.27 742.72,698.09 C742.81,696.91 743.54,694.63 744.34,693.02 C745.59,690.52 745.60,689.55 744.44,686.30 C742.41,680.59 742.69,677.51 745.48,674.85 C746.85,673.56 747.97,671.98 747.98,671.35 C747.99,670.71 749.42,668.58 751.16,666.62 C753.74,663.71 754.81,663.16 756.91,663.66 C760.56,664.53 762.00,665.90 762.00,668.50 C762.00,669.74 762.67,671.32 763.50,672.00 C764.33,672.68 765.00,673.86 765.00,674.62 C765.00,675.38 765.38,676.00 765.85,676.00 C767.11,676.00 770.00,672.53 770.00,671.02 C770.00,670.09 770.66,670.27 772.17,671.60 C774.31,673.47 774.33,673.47 773.63,671.56 C772.92,669.63 772.94,669.63 775.17,671.56 L 777.43 673.50 L 775.74 671.00 C774.80,669.62 773.30,667.04 772.41,665.25 C771.51,663.46 770.04,661.96 769.14,661.92 C768.10,661.87 767.96,661.66 768.75,661.34 C769.44,661.06 770.00,660.35 770.00,659.76 C770.00,659.17 769.11,659.49 768.02,660.48 C766.94,661.46 766.26,662.61 766.52,663.03 C767.05,663.89 763.98,665.32 763.23,664.56 C762.96,664.30 762.61,662.82 762.43,661.29 C762.06,657.95 764.32,654.46 766.12,655.58 C766.82,656.00 766.36,654.70 765.11,652.68 C763.86,650.65 763.02,649.00 763.25,649.00 C763.79,649.00 771.00,659.46 771.00,660.23 C771.00,660.55 774.67,666.82 779.15,674.16 C789.26,690.71 791.98,696.45 791.99,701.28 C792.02,711.96 782.93,721.07 767.50,725.85 ZM 596.98 545.40 C592.01,546.73 591.83,546.87 595.00,546.93 C595.83,546.94 596.93,546.86 598.09,546.70 C593.62,547.56 588.96,547.97 584.09,547.95 C577.54,547.91 572.89,547.33 567.81,545.89 C570.30,546.47 572.93,546.84 574.50,546.81 C576.72,546.76 577.49,546.53 576.24,546.29 C574.99,546.05 574.23,545.44 574.54,544.94 C574.85,544.44 574.42,544.29 573.58,544.61 C572.74,544.93 571.33,544.48 570.45,543.60 C569.58,542.72 567.43,541.94 565.68,541.87 C563.93,541.80 561.60,541.64 560.50,541.52 C557.89,541.23 549.65,537.02 550.34,536.33 C550.63,536.04 548.27,533.64 545.09,531.00 C538.72,525.69 533.00,518.98 533.00,516.80 C533.00,516.03 531.61,513.51 529.92,511.20 C527.53,507.96 526.83,505.97 526.83,502.42 C526.83,499.90 527.05,497.62 527.31,497.36 C527.70,496.97 530.85,496.38 534.25,496.07 C534.66,496.03 535.00,495.42 535.00,494.71 C535.00,494.01 535.90,493.43 537.00,493.43 C539.17,493.43 539.81,496.79 537.99,498.61 C537.43,499.17 537.26,501.06 537.61,502.81 C538.11,505.31 538.76,506.00 540.60,506.00 C542.18,506.00 543.44,506.95 544.44,508.88 C547.38,514.56 555.78,522.59 562.18,525.83 C570.37,529.97 581.59,532.32 588.93,531.42 C601.94,529.84 611.66,525.22 621.43,515.98 C627.16,510.56 632.19,508.01 637.22,507.98 C643.25,507.95 654.37,505.05 661.58,501.62 C671.10,497.10 681.67,487.14 686.16,478.47 C688.00,474.91 689.95,472.01 690.50,472.02 C691.05,472.03 693.00,473.35 694.83,474.97 C698.37,478.09 698.49,480.53 695.28,484.19 C694.47,485.11 694.04,486.26 694.33,486.73 C694.94,487.71 690.11,495.20 686.19,499.34 C682.67,503.06 672.18,511.24 669.00,512.75 C656.43,518.70 653.73,519.48 642.37,520.41 C636.49,520.89 630.21,524.36 628.10,528.31 C627.34,529.74 626.42,530.81 626.06,530.70 C624.89,530.34 619.09,535.76 619.81,536.55 C620.19,536.97 619.80,537.07 618.95,536.77 C618.10,536.46 616.30,536.83 614.95,537.57 C613.60,538.32 612.95,538.95 613.50,538.97 C614.05,538.99 613.15,539.94 611.50,541.08 C608.72,543.00 608.68,543.10 611.00,542.45 C612.66,541.98 614.18,541.32 617.22,539.64 C613.09,541.99 608.80,543.83 604.32,545.17 C607.32,543.92 602.78,543.84 596.98,545.40 ZM 236.42 829.69 C230.78,825.81 224.56,817.24 223.06,811.31 C222.38,808.61 222.01,787.97 222.03,753.31 C222.05,727.29 222.10,713.57 222.40,705.75 C223.38,710.08 226.31,716.05 229.45,719.77 C233.89,725.03 244.62,730.77 255.09,733.48 L 257.32 734.06 C249.82,732.69 247.33,733.29 254.37,735.18 C259.25,736.48 260.27,738.25 257.11,739.94 C255.93,740.57 255.05,742.38 254.77,744.73 C254.53,746.80 253.59,752.33 252.70,757.00 C251.80,761.67 250.37,771.99 249.52,779.91 C248.67,787.84 247.60,794.81 247.14,795.41 C244.75,798.54 242.86,809.79 242.83,821.07 C242.81,827.63 242.44,833.00 242.01,833.00 C241.57,833.00 239.06,831.51 236.42,829.69 ZM 449.47 544.94 C449.71,545.34 445.70,545.63 440.55,545.58 C435.40,545.54 431.37,545.22 431.58,544.87 C431.79,544.53 430.51,543.96 428.73,543.60 C423.81,542.63 411.96,537.96 407.77,535.33 C405.71,534.05 401.05,530.18 397.40,526.75 L 390.77 520.50 L 382.63 519.83 C377.83,519.43 371.63,518.08 367.50,516.54 C352.90,511.10 350.95,508.89 356.13,503.71 L 359.15 500.70 L 356.68 498.22 C354.28,495.83 354.11,495.80 350.95,497.38 C349.16,498.27 347.57,499.00 347.42,499.00 C347.26,499.00 347.19,496.76 347.26,494.02 C347.37,489.63 347.57,489.19 348.94,490.33 C349.80,491.04 352.62,493.44 355.22,495.66 C361.51,501.04 373.21,505.84 383.35,507.19 C396.93,509.00 398.53,509.63 405.26,515.89 C415.85,525.75 422.78,529.27 435.06,531.01 C444.37,532.33 452.80,530.80 462.63,525.99 C475.09,519.90 485.83,507.05 486.10,497.89 C486.21,494.04 487.74,488.41 487.90,491.25 C487.96,492.21 488.41,492.89 488.91,492.75 C489.42,492.61 491.89,494.21 494.41,496.30 C499.48,500.50 500.17,503.19 497.18,507.12 C496.18,508.43 494.75,511.08 494.00,513.00 C493.25,514.92 491.40,518.34 489.88,520.60 C487.33,524.38 485.00,526.59 476.25,533.58 C474.46,535.01 473.24,536.59 473.55,537.08 C473.85,537.57 473.33,537.68 472.39,537.32 C471.22,536.87 470.90,537.04 471.39,537.83 C471.79,538.47 471.75,539.04 471.31,539.08 C465.26,539.69 458.00,541.99 458.00,543.30 C458.00,543.75 457.56,543.84 457.02,543.51 C455.72,542.71 448.89,544.01 449.47,544.94 ZM 434.90 805.13 C430.72,804.78 426.56,803.88 425.65,803.13 C423.85,801.63 423.42,799.00 424.97,799.00 C425.47,799.00 424.92,797.58 423.74,795.77 C423.98,796.05 424.23,796.32 424.50,796.59 L 426.91 799.00 L 596.85 799.00 L 599.92 796.41 C604.20,792.81 604.27,787.11 600.08,782.92 L 597.15 780.00 L 513.03 780.00 C509.47,780.00 506.05,780.00 502.78,780.00 C447.45,779.99 431.16,779.99 425.64,781.84 C426.11,781.50 426.62,781.19 427.16,780.92 C430.44,779.24 433.43,778.97 450.71,778.79 C470.24,778.59 470.32,778.58 457.00,778.04 L 443.50 777.50 L 458.00 776.11 C474.57,774.53 570.20,773.86 581.00,775.25 C596.95,777.31 597.29,777.44 588.50,778.02 L 580.50 778.55 L 589.16 779.03 C593.92,779.29 597.61,779.16 597.35,778.75 C596.06,776.68 600.42,778.37 602.52,780.75 C605.40,784.02 605.81,786.04 603.09,783.58 C601.22,781.89 601.21,781.92 602.84,785.28 C604.11,787.90 604.58,788.27 604.82,786.85 C605.53,782.74 609.00,786.03 609.00,790.81 C609.00,795.63 605.44,801.40 601.14,803.56 C597.72,805.28 592.88,805.40 520.00,805.58 C477.38,805.68 439.08,805.48 434.90,805.13 ZM 657.63 250.53 C655.86,250.21 654.16,250.07 652.57,250.12 C650.33,250.18 649.29,250.44 650.25,250.69 C651.21,250.94 652.03,251.45 652.08,251.82 C652.12,252.20 652.31,253.35 652.51,254.38 C652.83,256.10 652.36,256.21 647.33,255.69 C640.50,254.99 638.51,253.27 636.50,246.35 C628.57,219.08 599.14,198.98 567.19,199.01 C556.41,199.02 550.04,201.14 544.75,206.49 C541.45,209.83 541.39,209.63 544.11,204.00 C546.59,198.89 547.20,198.22 552.47,194.99 C555.81,192.95 558.22,192.46 567.47,191.94 L 578.50 191.32 L 568.65 191.17 L 568.88 191.17 C578.10,190.91 582.47,191.15 582.95,191.93 C583.34,192.55 585.08,193.15 586.82,193.28 C588.57,193.40 590.00,193.86 590.00,194.31 C590.00,194.75 590.46,194.83 591.02,194.49 C592.26,193.72 601.00,196.92 601.00,198.14 C601.00,198.61 601.34,198.89 601.75,198.76 C603.01,198.36 609.00,201.18 609.00,202.18 C609.00,202.70 609.45,202.84 610.01,202.50 C610.56,202.15 611.28,202.57 611.61,203.43 C611.94,204.29 612.54,204.78 612.95,204.53 C614.18,203.77 625.71,214.15 630.13,220.00 C634.12,225.28 637.50,231.88 641.59,242.41 C642.64,245.11 644.17,247.45 645.00,247.62 C649.57,248.53 653.87,249.53 657.63,250.53 ZM 386.62 246.04 C385.86,241.28 389.06,231.70 393.95,224.07 C401.95,211.60 418.89,199.73 435.50,194.93 C445.78,191.97 463.60,191.20 469.53,193.46 C475.44,195.72 479.71,199.37 481.54,203.74 C483.69,208.89 483.39,209.12 479.35,205.43 C474.15,200.66 468.38,199.00 457.01,199.00 C430.38,199.00 403.90,214.47 392.72,236.56 C391.32,239.34 389.85,243.28 389.47,245.32 C388.51,250.43 387.37,250.71 386.62,246.04 ZM 551.00 194.10 C553.29,192.80 554.81,192.14 557.84,191.75 C556.40,192.09 555.09,192.61 553.49,193.35 C547.55,196.12 542.51,201.51 541.00,206.73 C540.22,209.40 539.99,252.13 540.20,353.50 L 540.50 495.79 L 539.00 492.80 L 539.00 353.08 C539.00,347.50 539.00,342.14 539.00,336.98 C538.99,216.50 538.99,208.15 542.76,202.17 C543.20,201.47 543.69,200.80 544.24,199.99 C545.48,198.16 548.53,195.50 551.00,194.10 ZM 583.21 488.44 C582.30,490.44 581.32,491.00 578.72,491.00 C573.37,491.00 572.99,489.96 573.10,475.55 C573.16,467.46 573.50,463.45 574.00,465.00 C574.44,466.38 574.86,467.05 574.93,466.50 C575.00,465.95 575.52,466.29 576.08,467.25 C577.16,469.10 580.00,469.67 580.00,468.03 C580.00,466.49 582.87,468.01 583.46,469.87 C583.75,470.79 583.59,472.94 583.10,474.65 C582.54,476.60 582.61,479.25 583.30,481.81 C584.10,484.81 584.07,486.54 583.21,488.44 ZM 680.00 272.10 C675.08,267.09 670.52,263.50 666.75,261.70 C663.59,260.18 661.00,258.55 661.00,258.07 C661.00,257.59 662.32,256.73 663.94,256.17 C666.33,255.34 667.67,255.55 671.19,257.32 C673.56,258.52 675.51,259.95 675.52,260.50 C675.54,262.39 677.20,264.14 678.49,263.64 C679.91,263.10 684.02,266.96 684.35,269.14 C684.46,269.89 684.86,270.98 685.23,271.57 C685.59,272.16 686.11,273.84 686.38,275.30 C686.64,276.77 687.14,278.42 687.49,278.98 C688.59,280.76 687.67,279.92 680.00,272.10 ZM 483.85 205.04 C483.84,205.01 483.83,204.98 483.82,204.96 C481.68,200.05 473.96,193.53 468.47,191.99 C462.22,190.24 444.50,191.27 435.62,193.90 C410.48,201.34 393.38,216.75 385.89,238.71 C385.94,238.56 385.99,238.40 386.05,238.24 C389.84,226.62 393.72,220.49 402.55,212.12 C411.37,203.77 422.43,197.21 432.10,194.59 C435.07,193.78 439.07,192.64 440.99,192.06 C446.17,190.49 467.36,190.71 471.35,192.37 C476.38,194.47 481.60,199.56 483.57,204.26 C483.67,204.51 483.76,204.76 483.85,205.04 ZM 748.15 693.75 C749.92,695.52 752.82,693.46 753.83,689.73 C754.76,686.26 754.39,684.76 753.10,686.84 C752.59,687.66 751.36,687.88 749.66,687.45 C747.24,686.84 747.00,687.04 747.00,689.69 C747.00,691.29 747.52,693.12 748.15,693.75 ZM 315.00 433.88 C304.71,426.20 299.29,420.00 302.85,420.00 C303.25,420.00 305.25,422.25 307.31,425.01 C309.37,427.76 313.51,431.65 316.52,433.65 C319.54,435.65 322.00,437.44 322.00,437.64 C322.00,438.68 319.95,437.58 315.00,433.88 ZM 318.71 735.87 L 514.50 735.71 L 764.50 735.50 L 516.00 735.81 C415.53,735.93 355.31,735.98 318.71,735.87 ZM 582.17 604.13 C582.15,605.97 582.16,608.13 582.22,610.64 L 582.50 623.50 L 634.32 624.00 L 583.35 624.00 L 583.81 627.14 C584.13,629.32 583.92,630.07 583.13,629.58 C581.91,628.83 581.63,613.81 582.17,604.13 ZM 347.00 501.02 C347.00,501.44 346.36,502.03 345.57,502.33 C343.65,503.07 341.88,500.81 342.98,499.03 C343.70,497.87 344.12,497.85 345.42,498.94 C346.29,499.66 347.00,500.59 347.00,501.02 ZM 306.98 429.15 C301.38,424.01 299.00,421.08 295.97,415.30 C302.04,426.03 310.74,433.68 324.43,440.50 C325.23,440.90 325.98,441.28 326.68,441.67 C324.94,440.80 322.77,439.79 320.00,438.54 C316.95,437.16 311.15,432.98 306.98,429.15 ZM 575.00 491.71 L 572.50 490.44 L 572.48 489.23 L 574.63 490.93 C578.15,493.69 580.43,493.54 582.93,490.37 C584.74,488.06 584.99,486.43 585.00,475.65 C585.00,487.67 584.80,489.20 583.00,491.00 C580.70,493.30 578.54,493.49 575.00,491.71 ZM 672.00 719.06 C672.00,719.58 672.45,720.00 673.00,720.00 C673.55,720.00 674.00,719.30 674.00,718.44 C674.00,717.58 673.55,717.16 673.00,717.50 C672.45,717.84 672.00,718.54 672.00,719.06 ZM 624.52 534.86 C625.30,534.20 626.11,533.48 626.84,532.79 C631.97,527.98 634.62,525.75 637.12,524.75 C635.46,525.53 633.62,527.10 630.12,530.25 C628.28,531.90 626.42,533.44 624.52,534.86 ZM 548.39 509.99 C553.07,516.08 559.19,520.81 566.06,523.90 C558.50,520.64 552.96,516.31 548.39,509.99 ZM 695.83 282.15 C694.00,277.78 691.55,273.64 688.48,269.74 C682.98,262.74 674.58,256.66 666.35,253.19 C667.61,253.65 668.67,254.09 669.50,254.51 C681.81,260.65 690.95,270.40 695.83,282.15 ZM 422.09 785.77 C422.07,785.82 422.05,785.88 422.03,785.93 C421.15,788.04 421.05,790.15 421.68,792.15 C421.26,791.21 421.00,790.39 421.00,789.91 C421.00,788.50 421.39,787.08 422.09,785.77 ZM 223.23 696.60 C223.40,695.80 223.59,695.14 223.82,694.50 C224.17,693.50 225.47,690.95 227.43,687.39 C225.38,691.27 224.05,694.19 223.23,696.60 ZM 693.20 625.28 C695.32,625.48 696.59,625.71 697.33,625.98 C697.79,626.15 698.34,626.41 698.93,626.73 C697.42,626.12 695.61,625.65 693.20,625.28 ZM 705.96 631.62 C708.25,633.51 710.00,635.30 710.00,636.02 C710.00,635.58 708.22,633.65 705.96,631.62 ZM 381.92 246.25 C383.47,244.60 384.69,242.23 385.82,238.90 C385.73,239.18 385.64,239.46 385.55,239.74 C384.64,242.54 383.46,244.68 381.92,246.25 ZM 435.23 649.67 C435.50,648.68 436.05,647.95 437.12,647.42 C437.02,647.49 436.92,647.57 436.83,647.65 C436.14,648.28 435.54,649.05 435.23,649.67 ZM 571.97 456.72 L 571.93 454.50 L 589.12 438.32 L 580.54 446.41 L 571.97 454.50 ZM 334.77 447.98 C336.37,450.20 337.01,452.70 337.02,455.90 C337.01,452.83 336.27,450.25 334.77,447.98 ZM 551.48 539.03 C547.00,536.32 542.84,532.95 538.38,528.54 C542.76,532.87 547.00,536.29 551.48,539.03 ZM 485.33 236.22 C485.20,224.03 485.04,216.64 484.79,212.07 C485.05,216.58 485.21,223.85 485.33,236.22 ZM 585.76 595.71 C584.34,595.86 583.59,596.04 583.25,596.25 C583.29,596.19 583.33,596.14 583.37,596.11 C583.55,595.96 584.32,595.82 585.76,595.71 ZM 572.00 526.11 C571.94,526.10 571.88,526.08 571.82,526.06 C573.23,526.48 574.65,526.84 576.09,527.13 C574.64,526.86 573.26,526.52 572.00,526.11 ZM 515.05 559.22 L 512.25 559.24 L 474.10 559.50 L 511.94 559.24 C512.98,559.23 514.02,559.22 515.05,559.22 Z" fill="rgb(57,107,164)"/>
<path d="M 424.50 796.59 C421.34,793.43 420.47,789.69 422.03,785.93 C424.59,779.75 420.79,780.00 513.03,780.00 L 597.15 780.00 L 600.08 782.92 C604.27,787.11 604.20,792.81 599.92,796.41 L 596.85 799.00 L 511.88 799.00 L 426.91 799.00 L 424.50 796.59 ZM 255.09 733.48 C244.62,730.77 233.89,725.03 229.45,719.77 C225.57,715.17 222.02,707.13 222.04,703.00 C222.08,696.55 225.47,689.66 241.93,662.50 C250.93,647.65 261.62,630.02 265.67,623.32 C271.27,614.07 274.19,610.30 277.78,607.69 C286.32,601.46 296.74,597.14 307.00,595.57 C308.92,595.27 339.75,595.02 375.50,595.01 C435.43,595.00 440.60,595.13 441.75,596.69 C443.14,598.58 443.52,620.63 442.20,622.71 C441.62,623.62 428.06,624.00 386.47,624.25 C326.86,624.61 327.27,624.57 319.93,630.29 C316.47,632.99 313.66,637.63 302.26,659.49 C286.78,689.17 286.02,691.68 290.84,697.17 C292.53,699.08 295.62,701.17 297.71,701.79 C300.50,702.63 357.82,702.96 512.70,703.04 C721.27,703.14 723.94,703.12 728.37,701.16 C733.40,698.94 736.00,695.05 736.00,689.75 C736.00,686.40 731.39,676.74 716.88,649.68 C713.09,642.63 710.00,636.48 710.00,636.02 C710.00,634.40 701.13,627.37 697.33,625.98 C694.28,624.86 682.16,624.46 638.00,624.04 L 582.50 623.50 L 582.22 610.64 C582.03,601.94 582.32,597.32 583.10,596.38 C584.08,595.20 594.87,594.99 650.88,595.06 C711.76,595.14 718.08,595.30 724.24,596.95 C740.45,601.29 749.32,608.33 759.20,624.71 C762.77,630.64 772.94,647.49 781.80,662.15 C790.65,676.80 798.64,690.53 799.56,692.65 C802.25,698.88 801.94,706.56 798.71,713.17 C794.14,722.50 786.59,728.04 771.50,733.14 L 764.50 735.50 L 514.50 735.71 L 264.50 735.92 L 255.09 733.48 ZM 767.50 725.85 C782.93,721.07 792.02,711.96 791.99,701.28 C791.98,696.45 789.26,690.71 779.15,674.16 C774.67,666.82 771.00,660.55 771.00,660.23 C771.00,659.46 763.79,649.00 763.25,649.00 C763.02,649.00 763.86,650.65 765.11,652.68 C766.36,654.70 766.82,656.00 766.12,655.58 C764.32,654.46 762.06,657.95 762.43,661.29 C762.61,662.82 762.96,664.30 763.23,664.56 C763.98,665.32 767.05,663.89 766.52,663.03 C766.26,662.61 766.94,661.46 768.02,660.48 C769.11,659.49 770.00,659.17 770.00,659.76 C770.00,660.35 769.44,661.06 768.75,661.34 C767.96,661.66 768.10,661.87 769.14,661.92 C770.04,661.96 771.51,663.46 772.41,665.25 C773.30,667.04 774.80,669.62 775.74,671.00 L 777.43 673.50 L 775.17 671.56 C772.94,669.63 772.92,669.63 773.63,671.56 C774.33,673.47 774.31,673.47 772.17,671.60 C770.66,670.27 770.00,670.09 770.00,671.02 C770.00,672.53 767.11,676.00 765.85,676.00 C765.38,676.00 765.00,675.38 765.00,674.62 C765.00,673.86 764.33,672.68 763.50,672.00 C762.67,671.32 762.00,669.74 762.00,668.50 C762.00,665.90 760.56,664.53 756.91,663.66 C754.81,663.16 753.74,663.71 751.16,666.62 C749.42,668.58 747.99,670.71 747.98,671.35 C747.97,671.98 746.85,673.56 745.48,674.85 C742.69,677.51 742.41,680.59 744.44,686.30 C745.60,689.55 745.59,690.52 744.34,693.02 C743.54,694.63 742.81,696.91 742.72,698.09 C742.63,699.27 740.74,701.71 738.53,703.51 C731.44,709.29 727.51,709.87 693.76,710.08 C666.34,710.25 663.17,710.44 660.01,712.13 C658.10,713.16 657.20,714.01 658.01,714.03 C659.24,714.06 659.22,714.23 657.88,715.01 C656.99,715.53 655.70,717.31 655.01,718.98 C654.06,721.28 653.12,722.00 651.08,722.00 C649.61,722.00 647.88,722.52 647.25,723.15 C646.56,723.84 642.56,724.30 637.17,724.30 C630.01,724.31 627.77,724.67 625.87,726.16 C623.56,727.97 625.21,728.00 693.00,727.70 C752.31,727.44 763.23,727.17 767.50,725.85 ZM 435.00 650.40 C435.00,649.80 435.82,648.57 436.83,647.65 C438.38,646.25 441.28,646.00 456.17,646.00 C472.12,646.00 473.84,646.17 475.41,647.90 C476.79,649.42 476.87,649.97 475.82,650.63 C473.75,651.93 435.00,651.72 435.00,650.40 ZM 552.50 651.27 C547.87,650.37 547.59,650.03 549.80,647.97 C551.73,646.17 553.38,646.00 568.80,646.00 C584.44,646.00 585.82,646.15 587.51,648.01 C588.50,649.11 589.07,650.27 588.75,650.58 C588.10,651.23 555.51,651.85 552.50,651.27 ZM 474.09 604.50 C473.93,597.35 473.73,584.30 473.65,575.50 L 473.50 559.50 L 512.25 559.24 L 551.00 558.98 L 550.78 585.74 L 550.56 612.50 L 550.03 592.50 C549.74,581.50 549.23,573.85 548.90,575.50 L 548.30 578.50 L 548.15 575.48 C548.05,573.39 547.19,571.97 545.39,570.88 L 542.77 569.29 L 545.07 567.15 L 547.38 565.00 L 512.94 565.08 C483.49,565.15 478.93,565.35 481.50,566.48 C483.15,567.21 484.73,567.67 485.00,567.51 C485.27,567.34 486.08,567.84 486.79,568.60 C487.87,569.77 487.59,570.00 485.07,570.00 C480.73,570.00 479.01,573.88 478.98,583.70 C478.96,592.13 476.44,604.21 475.89,598.50 C475.73,596.85 475.33,600.45 475.00,606.50 L 474.40 617.50 L 474.09 604.50 ZM 425.50 546.09 C412.52,542.52 404.58,538.11 395.01,529.14 C390.30,524.73 388.95,524.00 385.51,523.98 C378.13,523.95 367.75,521.07 358.08,516.39 C349.92,512.43 347.14,510.38 339.32,502.58 C331.58,494.86 329.43,491.97 325.65,484.20 C323.18,479.13 320.41,471.48 319.48,467.20 L 317.80 459.43 L 309.51 455.18 C284.14,442.19 268.80,415.56 268.81,384.50 C268.81,366.29 273.25,350.91 282.53,336.95 C287.05,330.16 298.41,318.64 303.66,315.54 L 306.54 313.84 L 306.59 302.67 C306.67,284.84 311.87,270.01 322.83,256.41 C332.02,245.00 348.06,234.63 360.70,231.92 C363.89,231.24 366.90,230.33 367.39,229.90 C367.88,229.47 369.52,226.18 371.04,222.58 C374.84,213.56 381.41,204.69 390.79,195.92 C402.60,184.87 416.37,177.47 433.59,172.90 C443.49,170.28 463.13,169.26 471.22,170.94 C484.30,173.66 496.30,183.00 501.80,194.75 L 504.50 200.50 L 504.77 348.00 L 505.03 495.50 L 502.93 502.50 C496.84,522.72 482.19,537.71 461.28,545.14 C452.69,548.19 434.84,548.66 425.50,546.09 ZM 449.47 544.94 C448.89,544.01 455.72,542.71 457.02,543.51 C457.56,543.84 458.00,543.75 458.00,543.30 C458.00,541.99 465.26,539.69 471.31,539.08 C471.75,539.04 471.79,538.47 471.39,537.83 C470.90,537.04 471.22,536.87 472.39,537.32 C473.33,537.68 473.85,537.57 473.55,537.08 C473.24,536.59 474.46,535.01 476.25,533.58 C485.00,526.59 487.33,524.38 489.88,520.60 C491.40,518.34 493.25,514.92 494.00,513.00 C494.75,511.08 496.18,508.43 497.18,507.12 C500.17,503.19 499.48,500.50 494.41,496.30 C491.89,494.21 489.42,492.61 488.91,492.75 C488.41,492.89 487.96,492.21 487.90,491.25 C487.74,488.41 486.21,494.04 486.10,497.89 C485.83,507.05 475.09,519.90 462.63,525.99 C452.80,530.80 444.37,532.33 435.06,531.01 C422.78,529.27 415.85,525.75 405.26,515.89 C398.53,509.63 396.93,509.00 383.35,507.19 C373.21,505.84 361.51,501.04 355.22,495.66 C352.62,493.44 349.80,491.04 348.94,490.33 C347.57,489.19 347.37,489.63 347.26,494.02 C347.19,496.76 347.26,499.00 347.42,499.00 C347.57,499.00 349.16,498.27 350.95,497.38 C354.11,495.80 354.28,495.83 356.68,498.22 L 359.15 500.70 L 356.13 503.71 C350.95,508.89 352.90,511.10 367.50,516.54 C371.63,518.08 377.83,519.43 382.63,519.83 L 390.77 520.50 L 397.40 526.75 C401.05,530.18 405.71,534.05 407.77,535.33 C411.96,537.96 423.81,542.63 428.73,543.60 C430.51,543.96 431.79,544.53 431.58,544.87 C431.37,545.22 435.40,545.54 440.55,545.58 C445.70,545.63 449.71,545.34 449.47,544.94 ZM 454.29 525.99 C462.16,523.56 471.39,517.59 475.84,512.05 C477.65,509.80 480.52,504.97 482.24,501.30 L 485.36 494.63 L 485.58 449.96 L 485.81 405.29 L 463.34 382.89 C450.98,370.58 440.22,359.28 439.43,357.80 C438.27,355.60 438.00,348.56 438.00,320.05 C438.00,289.93 437.79,285.00 436.53,285.00 C435.73,285.00 433.41,283.54 431.38,281.76 C418.88,270.78 423.11,249.91 438.93,244.51 C447.21,241.69 454.06,243.17 460.62,249.21 C465.88,254.06 468.59,261.59 467.56,268.47 C466.67,274.36 462.02,281.30 457.10,284.07 L 453.00 286.37 L 453.00 318.92 L 453.00 351.48 L 468.74 367.24 C477.39,375.91 484.79,383.00 485.17,383.00 C485.56,383.00 485.75,343.74 485.61,295.75 C485.36,214.84 485.21,208.19 483.57,204.26 C481.60,199.56 476.38,194.47 471.35,192.37 C467.36,190.71 446.17,190.49 440.99,192.06 C439.07,192.64 435.07,193.78 432.10,194.59 C422.43,197.21 411.37,203.77 402.55,212.12 C393.72,220.49 389.84,226.62 386.05,238.24 C383.58,245.79 380.81,248.64 375.15,249.50 C360.61,251.69 351.79,255.64 342.98,263.90 C331.78,274.40 326.00,287.68 326.01,302.86 C326.01,307.61 326.48,313.19 327.05,315.25 C328.58,320.74 326.10,325.41 320.05,328.48 C301.89,337.68 289.52,357.96 288.33,380.50 C287.65,393.33 289.56,402.55 295.21,413.80 C298.63,420.62 300.91,423.59 306.98,429.15 C311.15,432.98 316.95,437.16 320.00,438.54 C330.58,443.33 332.45,444.52 334.72,447.90 C336.26,450.19 337.01,452.79 337.02,455.90 C337.05,461.60 340.79,472.44 345.00,479.00 C349.69,486.32 359.06,494.47 367.28,498.41 C373.67,501.47 382.45,503.71 395.27,505.56 C398.14,505.97 400.89,507.77 406.77,513.09 C414.49,520.08 423.29,525.17 430.62,526.89 C437.47,528.50 447.40,528.12 454.29,525.99 ZM 347.00 501.02 C347.00,500.59 346.29,499.66 345.42,498.94 C344.12,497.85 343.70,497.87 342.98,499.03 C341.88,500.81 343.65,503.07 345.57,502.33 C346.36,502.03 347.00,501.44 347.00,501.02 ZM 451.93 270.37 C454.78,266.74 454.58,262.49 451.43,259.34 C446.55,254.46 438.00,258.26 438.00,265.30 C438.00,272.47 447.54,275.94 451.93,270.37 ZM 564.97 545.12 C554.77,541.86 546.84,536.91 538.38,528.54 C529.65,519.89 525.76,513.46 522.11,501.64 C520.00,494.80 520.00,494.57 520.00,350.50 C520.00,209.91 520.05,206.05 521.96,199.86 C526.50,185.17 536.12,176.22 552.49,171.46 C560.45,169.15 581.86,169.93 593.50,172.97 C609.40,177.11 629.92,189.37 640.09,200.78 C645.86,207.27 653.48,219.04 655.60,224.75 C656.56,227.36 657.42,229.61 657.51,229.75 C657.59,229.88 661.14,230.88 665.38,231.97 C685.47,237.11 703.03,251.86 712.40,271.50 C717.45,282.06 719.41,290.85 719.46,303.10 L 719.50 313.71 L 725.96 318.60 C741.93,330.69 753.21,351.25 756.09,373.50 C760.49,407.46 744.31,441.02 716.55,455.53 C711.60,458.12 708.82,460.20 708.56,461.50 C708.35,462.60 707.63,466.20 706.97,469.50 C703.24,488.12 688.22,506.87 669.38,516.44 C661.32,520.54 648.74,524.00 641.92,524.00 C636.92,524.00 635.04,525.09 626.84,532.79 C624.83,534.68 622.31,536.73 621.23,537.36 C615.28,540.81 613.26,541.81 611.00,542.45 C608.68,543.10 608.72,543.00 611.50,541.08 C613.15,539.94 614.05,538.99 613.50,538.97 C612.95,538.95 613.60,538.32 614.95,537.57 C616.30,536.83 618.10,536.46 618.95,536.77 C619.80,537.07 620.19,536.97 619.81,536.55 C619.09,535.76 624.89,530.34 626.06,530.70 C626.42,530.81 627.34,529.74 628.10,528.31 C630.21,524.36 636.49,520.89 642.37,520.41 C653.73,519.48 656.43,518.70 669.00,512.75 C672.18,511.24 682.67,503.06 686.19,499.34 C690.11,495.20 694.94,487.71 694.33,486.73 C694.04,486.26 694.47,485.11 695.28,484.19 C698.49,480.53 698.37,478.09 694.83,474.97 C693.00,473.35 691.05,472.03 690.50,472.02 C689.95,472.01 688.00,474.91 686.16,478.47 C681.67,487.14 671.10,497.10 661.58,501.62 C654.37,505.05 643.25,507.95 637.22,507.98 C632.19,508.01 627.16,510.56 621.43,515.98 C611.66,525.22 601.94,529.84 588.93,531.42 C581.59,532.32 570.37,529.97 562.18,525.83 C555.78,522.59 547.38,514.56 544.44,508.88 C543.44,506.95 542.18,506.00 540.60,506.00 C538.76,506.00 538.11,505.31 537.61,502.81 C537.26,501.06 537.43,499.17 537.99,498.61 C539.81,496.79 539.17,493.43 537.00,493.43 C535.90,493.43 535.00,494.01 535.00,494.71 C535.00,495.42 534.66,496.03 534.25,496.07 C530.85,496.38 527.70,496.97 527.31,497.36 C527.05,497.62 526.83,499.90 526.83,502.42 C526.83,505.97 527.53,507.96 529.92,511.20 C531.61,513.51 533.00,516.03 533.00,516.80 C533.00,518.98 538.72,525.69 545.09,531.00 C548.27,533.64 550.63,536.04 550.34,536.33 C549.65,537.02 557.89,541.23 560.50,541.52 C561.60,541.64 563.93,541.80 565.68,541.87 C567.43,541.94 569.58,542.72 570.45,543.60 C571.33,544.48 572.74,544.93 573.58,544.61 C574.42,544.29 574.85,544.44 574.54,544.94 C574.23,545.44 574.99,546.05 576.24,546.29 C577.49,546.53 576.72,546.76 574.50,546.81 C572.30,546.86 568.01,546.10 564.97,545.12 ZM 599.25 526.01 C606.72,523.70 610.29,521.44 620.41,512.62 C627.88,506.09 628.99,505.62 639.50,504.46 C665.17,501.63 685.73,483.35 689.19,460.27 C690.78,449.68 690.84,449.48 693.06,446.65 C694.21,445.18 698.99,442.15 703.68,439.92 C720.32,431.97 733.02,415.37 736.08,397.57 C738.01,386.30 736.81,371.10 733.20,361.30 C727.94,347.04 718.68,335.79 706.55,328.94 C699.10,324.74 697.30,321.08 699.06,313.74 C699.77,310.78 700.06,305.04 699.77,299.63 C698.74,280.21 687.52,263.50 669.50,254.51 C665.45,252.49 655.99,249.83 645.00,247.62 C644.17,247.45 642.64,245.11 641.59,242.41 C637.50,231.88 634.12,225.28 630.13,220.00 C625.71,214.15 614.18,203.77 612.95,204.53 C612.54,204.78 611.94,204.29 611.61,203.43 C611.28,202.57 610.56,202.15 610.01,202.50 C609.45,202.84 609.00,202.70 609.00,202.18 C609.00,201.18 603.01,198.36 601.75,198.76 C601.34,198.89 601.00,198.61 601.00,198.14 C601.00,196.92 592.26,193.72 591.02,194.49 C590.46,194.83 590.00,194.75 590.00,194.31 C590.00,193.86 588.57,193.40 586.82,193.28 C585.08,193.15 583.34,192.55 582.95,191.93 C582.47,191.15 578.10,190.91 568.88,191.17 C556.74,191.50 555.08,191.78 551.00,194.10 C548.53,195.50 545.48,198.16 544.24,199.99 C538.79,208.03 539.00,201.94 539.00,353.08 L 539.00 492.80 L 543.52 501.82 C550.01,514.79 557.97,521.58 572.00,526.11 C579.58,528.57 591.11,528.52 599.25,526.01 ZM 596.98 545.40 C603.62,543.61 608.62,543.97 602.50,545.80 C600.30,546.45 596.92,546.96 595.00,546.93 C591.83,546.87 592.01,546.73 596.98,545.40 ZM 672.00 719.06 C672.00,718.54 672.45,717.84 673.00,717.50 C673.55,717.16 674.00,717.58 674.00,718.44 C674.00,719.30 673.55,720.00 673.00,720.00 C672.45,720.00 672.00,719.58 672.00,719.06 ZM 748.15 693.75 C747.52,693.12 747.00,691.29 747.00,689.69 C747.00,687.04 747.24,686.84 749.66,687.45 C751.36,687.88 752.59,687.66 753.10,686.84 C754.39,684.76 754.76,686.26 753.83,689.73 C752.82,693.46 749.92,695.52 748.15,693.75 ZM 417.50 481.11 C412.43,478.77 409.66,475.75 406.93,469.57 C402.58,459.74 406.39,448.15 415.82,442.50 L 420.82 439.50 L 422.41 431.50 C423.29,427.10 424.00,422.61 424.00,421.52 C424.00,420.32 419.35,414.87 412.27,407.77 L 400.53 396.00 L 383.52 396.03 L 366.50 396.06 L 363.83 400.46 C352.54,419.08 323.48,410.79 323.65,389.00 C323.70,382.13 326.46,376.48 332.13,371.62 C336.86,367.57 340.64,366.56 348.56,367.21 C354.75,367.73 359.77,371.04 363.92,377.33 C366.20,380.80 366.63,381.00 371.67,381.00 L 377.00 381.00 L 377.00 355.73 L 377.00 330.45 L 373.50 328.57 C366.46,324.78 361.43,314.98 362.58,307.31 C362.93,304.96 364.63,300.69 366.36,297.82 C374.41,284.44 393.38,283.92 402.45,296.83 C405.08,300.58 405.54,302.20 405.82,308.83 C406.13,316.05 405.97,316.78 402.97,321.27 C401.21,323.91 397.82,327.19 395.39,328.62 L 391.00 331.19 L 391.00 356.10 L 391.00 381.00 L 398.07 381.00 C401.95,381.00 405.94,381.43 406.94,381.97 C407.93,382.50 415.76,389.97 424.34,398.58 L 439.93 414.22 L 439.36 418.86 C439.05,421.41 438.15,427.32 437.38,431.99 L 435.96 440.49 L 440.02 443.86 C450.31,452.41 451.48,467.12 442.63,476.85 C437.09,482.95 425.68,484.89 417.50,481.11 ZM 432.66 466.85 C438.34,461.51 433.72,452.15 426.00,453.38 C417.95,454.67 416.08,465.45 423.37,468.51 C427.19,470.12 429.65,469.68 432.66,466.85 ZM 351.19 393.96 C353.73,391.43 354.13,390.40 353.61,387.78 C352.66,383.06 350.29,381.00 345.80,381.00 C336.72,381.00 333.67,391.56 341.50,395.85 C344.93,397.72 348.03,397.12 351.19,393.96 ZM 390.08 315.08 C393.91,311.24 393.87,307.72 389.96,303.81 C387.43,301.27 386.40,300.87 383.78,301.39 C377.77,302.60 374.81,307.74 377.22,312.77 C378.57,315.59 382.26,317.96 385.33,317.99 C386.33,317.99 388.47,316.68 390.08,315.08 ZM 574.63 490.93 L 572.00 488.85 L 571.98 471.68 L 571.97 454.50 L 580.54 446.41 L 589.12 438.32 L 588.56 419.07 C588.26,408.48 587.75,399.41 587.44,398.91 C587.13,398.41 586.29,398.00 585.57,398.00 C583.33,398.00 576.21,389.41 575.08,385.35 C572.15,374.79 576.75,363.72 586.06,358.97 C593.28,355.29 605.00,356.86 610.83,362.30 C616.40,367.49 619.09,377.25 617.04,384.85 C615.71,389.77 608.98,397.72 605.36,398.63 L 603.00 399.22 L 603.00 418.11 L 603.00 437.00 L 616.75 436.93 L 630.50 436.86 L 636.29 430.51 C641.92,424.33 642.11,423.93 643.56,415.33 C644.38,410.47 645.51,405.59 646.07,404.48 C646.63,403.37 649.49,400.72 652.43,398.60 C657.40,394.99 657.80,394.39 658.24,389.89 C659.15,380.42 667.42,372.57 677.78,371.34 C691.70,369.69 704.56,384.53 701.00,398.13 C698.18,408.88 689.96,415.49 679.41,415.50 C674.34,415.50 672.49,414.98 668.33,412.39 L 663.33 409.29 L 660.66 411.23 C658.50,412.80 658.00,413.97 658.00,417.42 C658.00,425.18 655.62,430.44 647.86,439.83 C643.81,444.72 639.31,449.46 637.85,450.36 C635.63,451.73 632.02,452.00 616.02,452.00 L 596.84 452.00 L 590.92 457.15 L 585.00 462.30 L 585.00 475.02 C585.00,486.36 584.78,488.01 582.93,490.37 C580.43,493.54 578.15,493.69 574.63,490.93 ZM 583.21 488.44 C584.07,486.54 584.10,484.81 583.30,481.81 C582.61,479.25 582.54,476.60 583.10,474.65 C583.59,472.94 583.75,470.79 583.46,469.87 C582.87,468.01 580.00,466.49 580.00,468.03 C580.00,469.67 577.16,469.10 576.08,467.25 C575.52,466.29 575.00,465.95 574.93,466.50 C574.86,467.05 574.44,466.38 574.00,465.00 C573.50,463.45 573.16,467.46 573.10,475.55 C572.99,489.96 573.37,491.00 578.72,491.00 C581.32,491.00 582.30,490.44 583.21,488.44 ZM 685.08 399.08 C688.91,395.24 688.87,391.72 684.96,387.81 C682.42,385.26 681.39,384.87 678.71,385.38 C674.94,386.10 671.00,390.17 671.00,393.33 C671.00,397.67 675.44,401.77 680.33,401.94 C681.33,401.97 683.47,400.68 685.08,399.08 ZM 600.92 384.41 C605.18,380.83 605.18,376.17 600.92,372.59 C598.61,370.64 597.19,370.16 595.17,370.63 C586.98,372.57 585.33,381.93 592.50,385.85 C595.62,387.55 597.59,387.21 600.92,384.41 ZM 608.22 333.44 C605.37,331.44 605.20,325.80 607.91,323.09 C610.36,320.64 619.69,319.59 633.56,320.21 C640.00,320.49 644.32,320.28 644.97,319.63 C646.43,318.17 646.25,300.04 644.74,297.08 C642.93,293.55 616.68,273.39 612.91,272.63 C605.59,271.17 602.65,271.81 599.71,275.50 C598.17,277.43 595.13,279.91 592.96,281.02 L 589.00 283.04 L 589.00 296.02 C589.00,307.67 588.79,309.21 587.00,311.00 C585.89,312.11 583.67,313.00 582.00,313.00 C580.33,313.00 578.11,312.11 577.00,311.00 C575.20,309.20 575.00,307.67 575.00,295.62 L 575.00 282.24 L 572.01 281.00 C567.61,279.18 562.56,273.06 561.07,267.74 C558.54,258.72 562.04,249.03 569.80,243.57 C575.59,239.50 585.58,238.73 591.74,241.87 C596.52,244.31 601.87,250.36 602.68,254.25 C603.22,256.87 603.54,257.01 609.38,257.12 C612.74,257.18 616.74,257.52 618.27,257.87 C621.45,258.60 656.62,285.48 658.33,288.49 C659.57,290.69 660.62,324.38 659.57,328.57 C659.23,329.93 658.06,331.94 656.97,333.03 C655.13,334.87 653.57,335.00 632.72,335.00 C614.18,335.00 610.07,334.74 608.22,333.44 ZM 587.37 267.93 C590.72,265.29 591.02,259.47 587.96,256.19 C585.10,253.12 579.66,253.25 576.45,256.45 C569.19,263.72 579.25,274.31 587.37,267.93 Z" fill="rgb(136,189,228)"/>
</g>
</svg>